<?xml version="1.0" encoding="utf-8"?>
<!-- Generator: Adobe Illustrator 27.5.0, SVG Export Plug-In . SVG Version: 6.00 Build 0)  -->
<svg version="1.1" id="Layer_1" xmlns="http://www.w3.org/2000/svg" xmlns:xlink="http://www.w3.org/1999/xlink" x="0px" y="0px"
	 viewBox="0 0 2000 2000" style="enable-background:new 0 0 2000 2000;" xml:space="preserve">
<g>
	<rect style="fill:#FFFFFF;" width="2000" height="2000"/>
	<g>
		<g>
			<path style="fill:none;stroke:#DEE5F8;stroke-width:5;stroke-miterlimit:10;" d="M794.426,1265.709h-221.54
				c-5.478,0-9.918-4.44-9.918-9.918v-20.914c0-5.478,4.44-9.918,9.918-9.918h221.54c5.478,0,9.918,4.441,9.918,9.918v20.914
				C804.344,1261.268,799.904,1265.709,794.426,1265.709z"/>
			<path style="fill:none;stroke:#DEE5F8;stroke-width:3.75;stroke-miterlimit:10;" d="M926.414,1265.292h-90.165
				c-6.858,0-12.417-5.56-12.417-12.417v-15.915c0-6.858,5.559-12.417,12.417-12.417h90.165c6.858,0,12.417,5.559,12.417,12.417
				v15.915C938.831,1259.732,933.272,1265.292,926.414,1265.292z"/>
			<path style="fill:none;stroke:#DEE5F8;stroke-width:5;stroke-miterlimit:10;" d="M871.336,714.917h-90.165
				c-6.858,0-12.417-5.56-12.417-12.417v-15.915c0-6.858,5.56-12.417,12.417-12.417h90.165c6.858,0,12.417,5.559,12.417,12.417
				V702.5C883.754,709.357,878.194,714.917,871.336,714.917z"/>
			<path style="fill:none;stroke:#DEE5F8;stroke-width:5;stroke-miterlimit:10;" d="M1007.375,714.917h-90.165
				c-6.858,0-12.417-5.56-12.417-12.417v-15.915c0-6.858,5.559-12.417,12.417-12.417h90.165c6.858,0,12.417,5.559,12.417,12.417
				V702.5C1019.792,709.357,1014.232,714.917,1007.375,714.917z"/>
			<path style="fill:none;stroke:#DEE5F8;stroke-width:5;stroke-miterlimit:10;" d="M1352.841,1081.503h-90.165
				c-6.858,0-12.417-5.559-12.417-12.417v-15.916c0-6.858,5.559-12.417,12.417-12.417h90.165c6.858,0,12.417,5.559,12.417,12.417
				v15.916C1365.259,1075.944,1359.699,1081.503,1352.841,1081.503z"/>
		</g>
		<g>
			<path style="fill:#FBC343;" d="M1784.566,533.071v11.743c3.949,0,8.385,1.07,11.348,9.006c3.254,8.716,3.406,22.474,0.426,38.738
				c-3.355,18.312-10.562,39.437-20.842,61.09c-21.195,44.642-54.137,89.216-93.989,127.508l-5.91-130.432l34.797-48.18h29.335
				c11.162,0,20.243-9.081,20.243-20.244V554.83c0.174-0.267,0.901-1.212,3.145-2.516c10.666-6.198,17.55-7.499,21.447-7.499
				L1784.566,533.071 M1784.565,533.071c-7.513,0-16.644,2.869-27.347,9.089c-4.906,2.851-8.988,6.869-8.988,12.542V582.3
				c0,4.695-3.806,8.501-8.501,8.501h-35.339l-40.708,56.365l7.231,159.565C1807.644,688.082,1839.79,533.07,1784.565,533.071
				L1784.565,533.071z"/>
			<path style="fill:#FBC343;" d="M1363.766,533.071l0,11.743c3.897,0,10.781,1.301,21.447,7.499
				c2.244,1.304,2.971,2.249,3.145,2.516V582.3c0,11.162,9.081,20.244,20.244,20.244h29.335l34.797,48.18l-5.911,130.432
				c-39.852-38.292-72.794-82.866-93.989-127.508c-10.28-21.653-17.487-42.777-20.842-61.09c-2.98-16.265-2.829-30.022,0.426-38.738
				c2.963-7.936,7.399-9.006,11.348-9.006V533.071 M1363.767,533.071c-55.225-0.001-23.079,155.011,113.653,273.661l7.231-159.565
				l-40.708-56.365h-35.339c-4.695,0-8.501-3.806-8.501-8.501v-27.598c0-5.673-4.083-9.691-8.988-12.542
				C1380.411,535.941,1371.28,533.072,1363.767,533.071L1363.767,533.071z"/>
			<rect x="1459.086" y="1089.887" style="fill:#6F3428;" width="230.159" height="119.442"/>
			<path style="fill:#FBC343;" d="M1654.017,1089.887h-159.702v-38.97c0-17.405,14.109-31.515,31.514-31.515h96.673
				c17.405,0,31.515,14.109,31.515,31.515V1089.887z"/>
			<path style="fill:#FBC343;" d="M1623.877,1019.403h-99.423v-24.261c0-10.836,8.784-19.619,19.619-19.619h60.184
				c10.835,0,19.619,8.784,19.619,19.619V1019.403z"/>
			<path style="fill:#FBC343;" d="M1601.9,963.25l3.1,12.275h-61.65l3.075-12.275c4.1-16.3,4.1-32.725,0-49.025l-3.075-12.275H1605
				l-3.1,12.275c-1.35,5.375-2.25,10.75-2.7,16.15C1598.25,941.35,1599.15,952.325,1601.9,963.25z"/>
			<path style="opacity:0.3;fill:#6F3428;" d="M1605,901.95l-3.1,12.275c-1.35,5.375-2.25,10.75-2.7,16.15
				c-3.367-22.458-55.85-28.425-55.85-28.425H1605z"/>
			<path style="fill:#FBC343;" d="M1623.875,858.075v24.25c0,2-0.3,3.925-0.85,5.75c-2.45,8.025-9.925,13.875-18.775,13.875h-60.175
				c-10.825,0-19.625-8.775-19.625-19.625v-24.25H1623.875z"/>
			<path style="opacity:0.3;fill:#6F3428;" d="M1623.875,858.075v24.25c0,2-0.3,3.925-0.85,5.75
				c-26.55-24.4-93.975-25.125-98.575-25.15v-4.85H1623.875z"/>
			<path style="fill:#FBC343;" d="M1728.575,565.025l-28.5,124.45L1668.45,827.6c-4.725,20.675-23.125,35.325-44.325,35.325H1524.2
				c-21.125,0-39.45-14.55-44.275-35.125c-0.025-0.075-0.025-0.125-0.05-0.2l-60.125-262.575c-1.225-5.35,2.175-10.7,7.575-11.75
				c97.9-19.35,195.8-19.35,293.675,0C1726.4,554.325,1729.8,559.675,1728.575,565.025z"/>
			<path style="opacity:0.6;fill:#FFFFFF;" d="M1508.661,640c2.187,17.931-1.396,33.121-8.002,33.926
				c-6.606,0.805-13.734-13.078-15.92-31.009c-2.187-17.931,1.396-33.121,8.002-33.926
				C1499.347,608.185,1506.475,622.068,1508.661,640z"/>
			<path style="opacity:0.1;fill:#6F3428;" d="M1700.075,689.475L1668.45,827.6c-4.725,20.675-23.125,35.325-44.325,35.325H1524.2
				c-21.125,0-39.45-14.55-44.275-35.125C1589.75,820.875,1662.8,751.25,1700.075,689.475z"/>
			<g style="opacity:0.3;">
				<path style="fill:#6F3428;" d="M1543.35,975.525c5.052-1.265,10.183-2.017,15.326-2.557c5.145-0.558,10.315-0.793,15.49-0.883
					c10.331-0.026,20.786,0.674,30.834,3.44c-5.207,0.143-10.325,0.13-15.449,0.161l-15.353,0.146
					C1563.956,975.879,1553.727,976.037,1543.35,975.525z"/>
			</g>
			<g style="opacity:0.3;">
				<path style="fill:#6F3428;" d="M1524.455,1019.403c16.501-2.237,33.096-3.098,49.703-3.374
					c8.304-0.085,16.619,0.01,24.927,0.458c8.298,0.416,16.638,1.187,24.793,2.915c-8.314-0.277-16.576-0.063-24.852,0.011
					l-24.822,0.363C1557.646,1019.931,1541.085,1020.112,1524.455,1019.403z"/>
			</g>
			<g>
				<path style="fill:#FBC343;" d="M1529.477,366.642l10.293,74.082c0.596,4.292-5.158,6.268-7.325,2.516l-37.396-64.774
					c-2.295-3.973-0.38-9.038,3.958-10.528l20.879-7.171C1524.224,359.278,1528.846,362.097,1529.477,366.642z"/>
				<path style="fill:#FBC343;" d="M1632.88,322.291l-40.477,127.174c-2.345,7.368-13.13,6.118-13.728-1.591l-10.319-133.061
					c-0.634-8.163,6.348-14.841,14.478-13.899l39.13,4.535C1630.095,306.392,1635.365,314.49,1632.88,322.291z"/>
				<path style="fill:#FBC343;" d="M1680.144,400.196l-48.291,46.053c-2.798,2.668-7.228-0.47-5.639-3.994l27.428-60.833
					c1.682-3.732,6.348-4.984,9.687-2.619l16.072,11.386C1682.741,392.554,1683.107,397.371,1680.144,400.196z"/>
			</g>
		</g>
		<g>
			<g>
				<path style="fill:#102048;" d="M593.977,776.34c21.67,13.496,44.671-3.957,47.191-18.795c3.75-22.083-16.355-47.5-47.191-28.646
					c0,0-26.723-31.25-52.683-0.313c0,0-44.293,22.292-19.71,61.042c24.509,38.633,55.43-13.991,55.43-13.991L593.977,776.34z"/>
				<path style="fill:#E28B6D;" d="M609.72,786.021c11.875,15.938,17.096,22.216,15.423,27.202
					c-1.673,4.986-13.548,5.392-13.548,5.392L609.72,786.021z"/>
				<polygon style="fill:#F9B384;" points="591.285,835.261 584.484,852.261 558.185,918.036 515.76,867.811 555.81,808.586 
					579.709,826.561 				"/>
				<path style="fill:#102048;" d="M591.285,835.261l-6.8,17c-9.275-9.175-18.3-21.15-21.975-26.45l17.2,0.75L591.285,835.261z"/>
				<path style="fill:#F9B384;" d="M615.909,826.736c-0.375,8.95-2.15,15.925-6.525,19.025c-12.575,8.9-58.75-29.05-58.75-29.05
					l-3.15-53.425l64.925,4.625c0.125,8.575,1.05,18.225,1.925,27.75C615.334,806.786,616.31,817.761,615.909,826.736z"/>
				<path style="fill:#102048;" d="M553.511,789.524c15.886,2.969,19.969-14.585,19.969-14.585
					c17.01-10.415,31.073,13.647,46.371,4.685l2.358-30.725l-67.3-3.438l-24.263,15.625l6.875,18.75L553.511,789.524z"/>
				<path style="fill:#F9B384;" d="M563.459,789.862c-8.55-9.713-22.364-5.553-23.682,4.867c-1.318,10.42,7.29,27.989,21.267,17.798
					L563.459,789.862z"/>
				<path style="fill:#FC8879;" d="M615.909,826.736c-1.35,0.4-2.8,0.6-4.3,0.6c-8.825,0-15.975-7.15-15.975-15.975
					c0-8.8,7.15-15.95,15.975-15.95c0.925,0,1.85,0.075,2.725,0.25C615.334,806.786,616.31,817.761,615.909,826.736z"/>
				<path style="fill:#102048;" d="M557.631,796.781c-0.5-1.143-1.39-2.077-2.376-2.844c-1.007-0.74-2.102-1.392-3.275-1.675
					c-1.15-0.336-2.333-0.359-3.354,0.099c-1.046,0.42-1.882,1.366-2.64,2.46l-0.677-0.28c0.345-1.385,1.156-2.801,2.567-3.636
					c1.413-0.821,3.154-0.847,4.607-0.431c1.454,0.468,2.777,1.22,3.82,2.277c1.032,1.036,1.922,2.351,2.048,3.892L557.631,796.781z
					"/>
			</g>
			<g>
				<path style="fill:#F9B384;" d="M619.852,958.052c14.026-16.301,15.42-39.581,20.734-44.359
					c9.895-8.897,5.377,18.289,5.377,18.289s6.438-18.307,21.906-22.454c10.13-2.715,11.938,6.708,11.061,14.593
					c-1.457,13.089-5.762,28.067-16.344,36.766c-4.505,3.703-10.261,6.527-13.505,11.524c-1.844,2.84-3.443,6.054-4.336,9.338
					L619.852,958.052z"/>
				<polygon style="fill:#708CD5;" points="617.626,958.586 624.146,949.805 650.661,973.378 643.251,984.084 				"/>
				<path style="fill:#102048;" d="M533.805,1045.052l84.361-94.042l31.322,30.738c-22.398,50.935-52.071,83.615-99.639,108.607
					L533.805,1045.052z"/>
				<path style="fill:#E28B6D;" d="M653.849,931.224c1.667-0.335,3.282,0.054,4.77,0.519c1.503,0.468,2.888,1.175,4.229,1.934
					c1.335,0.772,2.594,1.659,3.763,2.672c1.154,1.076,2.296,1.985,3.031,3.778l-0.913,0.348c-0.833-0.78-2.275-1.59-3.431-2.367
					c-1.23-0.775-2.465-1.549-3.713-2.287c-1.242-0.749-2.507-1.446-3.768-2.125c-1.277-0.631-2.569-1.223-3.913-1.495
					L653.849,931.224z"/>
				<path style="fill:#E28B6D;" d="M645.772,936.926c1.703,0.661,3.415,1.641,4.613,3.29c1.219,1.626,1.67,3.806,1.426,5.777
					c-0.237,1.989-1.042,3.802-2.142,5.346c-1.122,1.517-2.458,2.937-4.489,3.527l-0.311-0.927c1.209-0.883,2.16-2.381,2.943-3.773
					c0.766-1.433,1.337-2.955,1.528-4.467c0.207-1.518-0.05-2.985-0.734-4.345c-0.725-1.358-1.98-2.44-3.292-3.564L645.772,936.926z
					"/>
			</g>
			<path style="fill:#708CD5;" d="M353.458,1045.052l-89.846-24.494l0,0c1.816-6.661,8.687-10.588,15.348-8.772l65.726,17.918
				C351.346,1031.521,355.273,1038.392,353.458,1045.052L353.458,1045.052z"/>
			<g>
				<path style="fill:#1F3C88;" d="M318.769,1536.082c0,0,18.371,39.083,71.219,26.523l-25.486-33.81L318.769,1536.082z"/>
				<g>
					<polygon style="fill:#F9B384;" points="336.702,1531.271 317.887,1573.588 338.423,1605.964 363.82,1585.303 375.047,1538.733 
											"/>
				</g>
				<g>
					<g>
						<path style="fill:#1F3C88;" d="M317.887,1573.588l45.934,11.715l26.055,64.469c2.439,6.034-3.834,11.905-9.694,9.072
							l-81.493-39.402c-5.899-2.852-8.442-9.892-5.728-15.856l0.719-1.58C298.936,1590.459,307.322,1580.614,317.887,1573.588
							L317.887,1573.588z"/>
					</g>
					<g>
						<path style="fill:#1F3C88;" d="M317.887,1573.588l45.934,11.715l26.055,64.469c2.439,6.034-3.834,11.905-9.694,9.072
							l-81.493-39.402c-5.899-2.852-8.442-9.892-5.728-15.856l0.719-1.58C298.936,1590.459,307.322,1580.614,317.887,1573.588
							L317.887,1573.588z"/>
					</g>
				</g>
				<g>
					
						<rect x="360.541" y="1609.351" transform="matrix(0.8724 -0.4888 0.4888 0.8724 -740.4838 384.9955)" style="fill:#ACBFEE;" width="13.047" height="2.502"/>
					
						<rect x="366.23" y="1623.622" transform="matrix(0.8719 -0.4897 0.4897 0.8719 -747.9411 390.694)" style="fill:#ACBFEE;" width="13.048" height="2.498"/>
				</g>
				<path style="fill:#102048;" d="M379.933,1099.795c-8.888,20.913-20.946,53.069-0.734,91.692
					c8.226,15.719,10.993,33.721,7.021,51.012l-67.45,293.583l71.219,26.523l145.738-425.137L379.933,1099.795z"/>
			</g>
			<g>
				<path style="fill:#708CD5;" d="M570.475,888.378c14.391,41.316,14.797,111.857-12.548,186.284l-42.175,12.034l16.951-137.854
					L570.475,888.378z"/>
				<path style="fill:#708CD5;" d="M524.173,852.901l11.553-25.565c0,0,32.734,22.813,49.921,50l-20.049,37.727L524.173,852.901z"/>
			</g>
			<path style="fill:#1F3C88;" d="M532.685,1069.211c-112.05-3.6-170.7,59.2-170.275,56.75c18.025-61.15,35-106.875,50.2-141
				c27.55-61.925,49.2-85.825,60.45-94.825c5.5-4.425,8.525-5.275,8.525-5.275l51.025-42.725c4.425,2.275,8.625,5.525,12.425,9.1
				c14.375,13.5,22.6,32.15,24.55,51.75C577.234,979.711,532.685,1069.211,532.685,1069.211z"/>
			<path style="fill:#102048;" d="M500.335,892.545c-16.35,8.675-44.758,54.016-87.725,92.417
				c27.55-61.925,49.2-85.825,60.45-94.825L500.335,892.545z"/>
			<g>
				<path style="fill:#F9B384;" d="M316.108,987.716l-18.034,25.617c0,0-2.234,10.471-7.059,14.631c0,0,2.16,10.728,10.598,14.493
					c9.633,4.298,21.514,4.066,29.218-6.932c7.705-10.997,8.706-43.605,8.706-43.605L316.108,987.716z"/>
				<path style="fill:#708CD5;" d="M303.668,992.961c0,1.667-3.333,10.833-3.333,10.833l39.204,5.417v-17.291L303.668,992.961z"/>
				<path style="fill:#1F3C88;" d="M532.62,842.128c0,0-74.642-11.192-135.278,20.226c-8.551,4.431-16.353,10.187-23.27,16.889
					c-29.274,28.364-55.424,56.295-75.208,115.597l46.612,7.616l46.987-69.442c4.052-5.945,10.19-10.137,17.204-11.737
					c24.885-5.676,84.539-19.634,93.895-25.088L532.62,842.128z"/>
			</g>
			<g>
				<path style="fill:#1F3C88;" d="M598.032,1288.548c0,0,28.071,37.4,74.562,18.615l-31.01-32.951L598.032,1288.548z"/>
				<g>
					<polygon style="fill:#F9B384;" points="615.216,1278.728 596.4,1321.045 616.937,1353.421 642.334,1332.76 653.561,1286.191 
											"/>
				</g>
				<g>
					<path style="fill:#1F3C88;" d="M596.4,1321.045l45.934,11.715l26.055,64.469c2.439,6.034-3.834,11.905-9.694,9.072
						l-81.493-39.402c-5.899-2.852-8.442-9.892-5.728-15.856l0.719-1.58C577.449,1337.916,585.835,1328.071,596.4,1321.045
						L596.4,1321.045z"/>
				</g>
				<g>
					
						<rect x="638.875" y="1355.655" transform="matrix(0.8724 -0.4888 0.4888 0.8724 -580.9428 488.6782)" style="fill:#ACBFEE;" width="13.047" height="2.502"/>
				</g>
				<g>
					
						<rect x="644.563" y="1369.925" transform="matrix(0.8719 -0.4897 0.4897 0.8719 -588.0505 494.4922)" style="fill:#ACBFEE;" width="13.048" height="2.498"/>
				</g>
				<path style="fill:#102048;" d="M379.933,1099.795c15.313-10.6,112.978-36.206,174.977-34.333
					c68.908,2.081,124.214,9.91,146.694,60.372c22.48,50.462-29.01,181.33-29.01,181.33l-74.562-18.615l17.971-121.325
					c0,0-94.419,11.904-139.419,12.405L379.933,1099.795z"/>
				<path style="fill:#708CD5;" d="M535.716,1176.407c-7.679,0.039-15.054,1.961-22.646,3.522
					c-7.601,1.559-15.426,2.173-23.179,2.083c-7.76-0.156-15.473-0.886-23.13-1.902c-3.823-0.553-7.625-1.221-11.433-1.833
					c-3.78-0.777-7.566-1.508-11.331-2.335l0.177-0.961c3.821,0.474,7.621,1.046,11.427,1.57c3.812,0.465,7.616,0.987,11.429,1.391
					c7.623,0.832,15.26,1.462,22.894,1.593c7.642,0.218,15.233-0.435,22.768-1.684c3.776-0.611,7.55-1.395,11.401-1.934
					c3.862-0.492,7.767-0.632,11.642-0.488L535.716,1176.407z"/>
			</g>
			<path style="fill:#ACBFEE;" d="M393.335,1103.836l-23.675,86.875l-2.775,10.125c-2.925,10.7-13.975,17.025-24.7,14.1
				l-155.075-42.275c-10.725-2.925-17.05-13.975-14.125-24.7l15.6-57.175l10.85-39.8c2.925-10.725,13.975-17.05,24.675-14.125
				l155.1,42.275C389.935,1082.061,396.234,1093.111,393.335,1103.836z"/>
			<path style="fill:#708CD5;" d="M249.809,1071.228l13.76-50.472c1.816-6.661,8.687-10.588,15.348-8.772v0l-17.047,62.532
				L249.809,1071.228z"/>
			<path style="fill:#708CD5;" d="M328.459,1089.269l16.24-59.569l0,0c6.661,1.816,10.588,8.687,8.772,15.348l-12.952,47.51
				L328.459,1089.269z"/>
			<circle style="fill:#102048;" cx="254.951" cy="1076.128" r="10.764"/>
			<circle style="fill:#102048;" cx="333.76" cy="1093.587" r="10.764"/>
			<path style="opacity:0.15;fill:#102048;" d="M369.659,1190.711l-2.775,10.125c-2.925,10.7-13.975,17.025-24.7,14.1
				l-155.075-42.275c-10.725-2.925-17.05-13.975-14.125-24.7l20.706-75.903C188.46,1143.854,300.335,1190.461,369.659,1190.711z"/>
		</g>
		<g>
			<polygon style="opacity:0.2;fill:#ACBFEE;" points="1720.625,1212.632 1720.625,1318.785 555.972,1762.351 282.422,1762.351 
				282.422,1660.25 553.522,1660.25 553.822,1604 554.147,1547.6 826.472,1547.6 826.472,1434.976 1097.572,1434.976 
				1097.572,1325.176 1368.697,1325.176 1368.697,1212.526 			"/>
			<path style="fill:#ACBFEE;" d="M1094.639,1437.897H827.26c-2.993,0-5.442-2.449-5.442-5.442l0,0c0-2.993,2.449-5.442,5.442-5.442
				h267.379c2.993,0,5.442,2.449,5.442,5.442l0,0C1100.081,1435.448,1097.632,1437.897,1094.639,1437.897z"/>
			<path style="fill:#ACBFEE;" d="M1366.306,1329.563h-267.379c-2.993,0-5.442-2.449-5.442-5.442l0,0
				c0-2.993,2.449-5.442,5.442-5.442h267.379c2.993,0,5.442,2.449,5.442,5.442l0,0
				C1371.748,1327.114,1369.299,1329.563,1366.306,1329.563z"/>
			<path style="fill:#ACBFEE;" d="M1720.797,1215.468h-352.596c-2.993,0-5.442-2.449-5.442-5.442l0,0
				c0-2.993,2.449-5.442,5.442-5.442h352.596c2.993,0,5.442,2.449,5.442,5.442l0,0
				C1726.239,1213.019,1723.79,1215.468,1720.797,1215.468z"/>
			<path style="fill:#ACBFEE;" d="M823.312,1549.886H555.933c-2.993,0-5.442-2.449-5.442-5.442l0,0c0-2.993,2.449-5.442,5.442-5.442
				h267.379c2.993,0,5.442,2.449,5.442,5.442l0,0C828.754,1547.437,826.305,1549.886,823.312,1549.886z"/>
			<path style="fill:#ACBFEE;" d="M550.937,1662.52H283.558c-2.993,0-5.442-2.449-5.442-5.442l0,0c0-2.993,2.449-5.442,5.442-5.442
				h267.379c2.993,0,5.442,2.449,5.442,5.442l0,0C556.379,1660.071,553.93,1662.52,550.937,1662.52z"/>
		</g>
		<g>
			<g>
				<g>
					<path style="fill:#DEE5F8;" d="M849.495,1063.964l-1.488-16.806l26.798-2.372c139.166-12.311,256.231-106.363,298.242-239.606
						l34.289-108.761l16.089,5.073l-34.289,108.761c-44.068,139.766-166.866,238.421-312.843,251.338L849.495,1063.964z"/>
				</g>
				<g>
					<polygon style="fill:#DEE5F8;" points="1215.819,799.59 1208.491,719.529 1154.076,782.588 1141.303,771.567 1221.668,678.437 
						1232.616,798.053 					"/>
				</g>
			</g>
			<path style="fill:#DEE5F8;" d="M591.893,480.361c0,2.875-1.085,5.647-3.116,8.247H283.066c-1.171-2.6-1.79-5.372-1.79-8.247
				c0-15.34,17.82-27.771,39.806-27.771c6.973,0,13.516,1.257,19.215,3.461c2.996-21.78,32.851-38.894,69.231-38.894
				c37.93,0,68.749,18.578,69.489,41.649c11.897-3.874,27.1-6.215,43.646-6.215C560.902,452.589,591.893,465.02,591.893,480.361z"/>
			<path style="fill:#DEE5F8;" d="M1124.708,274.727c0,3.441-1.298,6.759-3.73,9.87H755.097c-1.401-3.111-2.143-6.429-2.143-9.87
				c0-18.36,21.327-33.237,47.641-33.237c8.345,0,16.176,1.504,22.996,4.142c3.586-26.067,39.316-46.549,82.857-46.549
				c45.395,0,82.28,22.234,83.166,49.846c14.239-4.636,32.434-7.439,52.236-7.439
				C1087.617,241.489,1124.708,256.367,1124.708,274.727z"/>
		</g>
	</g>
</g>
</svg>
